<svg xmlns="http://www.w3.org/2000/svg">
    <clipPath id="clip" clipPathUnits="objectBoundingBox">
		<path d="M0.382169 0.0882999C0.452006 0.0359654 0.547994 0.0359654 0.617831 0.0882999V0.0882999C0.644218 0.108074 0.675156 0.120889 0.707797 0.125565V0.125565C0.794185 0.137941 0.862059 0.205815 0.874435 0.292203V0.292203C0.879111 0.324844 0.891926 0.355782 0.9117 0.382169V0.382169C0.964035 0.452006 0.964035 0.547994 0.9117 0.617831V0.617831C0.891926 0.644218 0.879111 0.675156 0.874435 0.707797V0.707797C0.862059 0.794185 0.794185 0.862059 0.707797 0.874435V0.874435C0.675156 0.879111 0.644218 0.891926 0.617831 0.9117V0.9117C0.547994 0.964035 0.452006 0.964035 0.382169 0.9117V0.9117C0.355782 0.891926 0.324844 0.879111 0.292203 0.874435V0.874435C0.205815 0.862059 0.137941 0.794185 0.125565 0.707797V0.707797C0.120889 0.675156 0.108074 0.644218 0.0882999 0.617831V0.617831C0.0359654 0.547994 0.0359654 0.452006 0.0882999 0.382169V0.382169C0.108074 0.355782 0.120889 0.324844 0.125565 0.292203V0.292203C0.137941 0.205815 0.205815 0.137941 0.292203 0.125565V0.125565C0.324844 0.120889 0.355782 0.108074 0.382169 0.0882999V0.0882999Z"/>
    </clipPath>
</svg>
